<svg width="16" height="16" viewBox="0 0 16 16" fill="#ffab32" xmlns="http://www.w3.org/2000/svg">
    <g opacity="1">
        <path
            d="M1 8C1 4.13401 4.13401 0.999999 8 0.999999C11.866 1 15 4.13401 15 8C15 11.866 11.866 15 8 15C4.13401 15 1 11.866 1 8Z"
            stroke="currentColor" stroke-width="2"></path>
        <path fill-rule="evenodd" clip-rule="evenodd"
            d="M8 6C9.10457 6 10 6.89543 10 8C10 9.10457 9.10457 10 8 10C6.89543 10 6 9.10457 6 8C6 6.89543 6.89543 6 8 6Z"
            fill="currentColor"></path>
        <path fill-rule="evenodd" clip-rule="evenodd"
            d="M4.79155 6.09591C4.41476 5.71261 4.41664 5.09746 4.79576 4.71647V4.71647C5.18084 4.3295 5.80777 4.33141 6.19047 4.72073L7.94687 6.50744C8.32366 6.89074 8.32179 7.50589 7.94266 7.88688V7.88688C7.55759 8.27385 6.93065 8.27194 6.54795 7.88263L4.79155 6.09591Z"
            fill="currentColor"></path>
    </g>
</svg>