<svg xmlns="http://www.w3.org/2000/svg" xmlns:xlink="http://www.w3.org/1999/xlink" viewBox="0 0 645 486" width="645"
    height="486" preserveAspectRatio="xMidYMid meet"
    style="width: 100%; height: 100%; transform: translate3d(0px, 0px, 0px); content-visibility: visible;">
    <defs>
        <clipPath id="__lottie_element_433">
            <rect width="645" height="486" x="0" y="0"></rect>
        </clipPath>
        <clipPath id="__lottie_element_435">
            <path d="M0,0 L645,0 L645,486 L0,486z"></path>
        </clipPath>
        <clipPath id="__lottie_element_443">
            <path d="M0,0 L632,0 L632,620 L0,620z"></path>
        </clipPath>
        <clipPath id="__lottie_element_460">
            <path d="M0,0 L208,0 L208,296 L0,296z"></path>
        </clipPath>
        <clipPath id="__lottie_element_488">
            <path d="M0,0 L208,0 L208,296 L0,296z"></path>
        </clipPath>
        <clipPath id="__lottie_element_514">
            <path d="M0,0 L440,0 L440,476 L0,476z"></path>
        </clipPath>
        <g id="__lottie_element_523">
            <g transform="matrix(0.7499959468841553,0,0,0.3834611177444458,221.1653594970703,238.73931884765625)"
                opacity="1" style="display: block;">
                <g opacity="1" transform="matrix(1,0,0,1,2.315000057220459,14.253000259399414)">
                    <path fill="rgb(169,102,6)" fill-opacity="1"
                        d=" M25.065500259399414,-5.496500015258789 C25.065500259399414,-5.496500015258789 25.065500259399414,5.496500015258789 25.065500259399414,5.496500015258789 C25.065500259399414,18.190200805664062 14.759200096130371,28.49650001525879 2.065500259399414,28.49650001525879 C2.065500259399414,28.49650001525879 -2.065500259399414,28.49650001525879 -2.065500259399414,28.49650001525879 C-14.759200096130371,28.49650001525879 -25.065500259399414,18.190200805664062 -25.065500259399414,5.496500015258789 C-25.065500259399414,5.496500015258789 -25.065500259399414,-5.496500015258789 -25.065500259399414,-5.496500015258789 C-25.065500259399414,-18.190200805664062 -14.759200096130371,-28.49650001525879 -2.065500259399414,-28.49650001525879 C-2.065500259399414,-28.49650001525879 2.065500259399414,-28.49650001525879 2.065500259399414,-28.49650001525879 C14.759200096130371,-28.49650001525879 25.065500259399414,-18.190200805664062 25.065500259399414,-5.496500015258789z">
                    </path>
                </g>
            </g>
        </g>
        <mask id="__lottie_element_523_1" mask-type="alpha">
            <use xlink:href="#__lottie_element_523"></use>
        </mask>
        <clipPath id="__lottie_element_607">
            <path d="M0,0 L645,0 L645,486 L0,486z"></path>
        </clipPath>
        <clipPath id="__lottie_element_614">
            <path d="M0,0 L632,0 L632,620 L0,620z"></path>
        </clipPath>
        <clipPath id="__lottie_element_627">
            <path d="M0,0 L208,0 L208,296 L0,296z"></path>
        </clipPath>
        <clipPath id="__lottie_element_653">
            <path d="M0,0 L440,0 L440,476 L0,476z"></path>
        </clipPath>
        <g id="__lottie_element_662">
            <g style="display: none;">
                <g>
                    <path></path>
                </g>
            </g>
        </g>
        <mask id="__lottie_element_662_1" mask-type="alpha">
            <use xlink:href="#__lottie_element_662"></use>
        </mask>
    </defs>
    <g clip-path="url(#__lottie_element_433)">
        <g clip-path="url(#__lottie_element_607)" style="display: none;">
            <g style="display: none;">
                <g>
                    <path></path>
                </g>
            </g>
            <g style="display: none;">
                <g>
                    <path></path>
                </g>
            </g>
            <g style="display: none;">
                <g>
                    <path></path>
                </g>
            </g>
            <g style="display: none;">
                <g>
                    <path></path>
                </g>
                <g>
                    <path></path>
                </g>
                <g>
                    <path></path>
                </g>
            </g>
            <g style="display: none;">
                <g>
                    <path></path>
                </g>
            </g>
            <g clip-path="url(#__lottie_element_653)" style="display: none;">
                <g style="display: none;">
                    <g>
                        <path></path>
                    </g>
                </g>
                <g style="display: none;">
                    <g>
                        <path></path>
                    </g>
                </g>
                <g style="display: none;">
                    <g>
                        <path></path>
                    </g>
                </g>
                <g style="display: none;">
                    <g>
                        <path></path>
                    </g>
                </g>
                <g style="display: none;">
                    <g>
                        <path></path>
                    </g>
                </g>
                <g style="display: none;">
                    <g>
                        <path></path>
                    </g>
                </g>
                <g style="display: none;">
                    <g>
                        <path></path>
                    </g>
                </g>
                <g style="display: none;">
                    <g>
                        <path></path>
                    </g>
                </g>
                <g style="display: none;">
                    <g>
                        <path></path>
                    </g>
                </g>
                <g style="display: none;">
                    <g>
                        <path></path>
                    </g>
                </g>
                <g style="display: none;">
                    <g>
                        <path></path>
                    </g>
                </g>
                <g style="display: none;">
                    <g>
                        <path></path>
                    </g>
                </g>
                <g style="display: none;">
                    <g>
                        <path></path>
                    </g>
                </g>
                <g style="display: none;">
                    <g>
                        <path></path>
                    </g>
                    <g>
                        <path></path>
                    </g>
                </g>
                <g style="display: none;">
                    <g>
                        <path></path>
                    </g>
                    <g>
                        <path></path>
                    </g>
                    <g>
                        <path></path>
                    </g>
                    <g>
                        <path></path>
                    </g>
                </g>
                <g style="display: none;">
                    <g>
                        <path></path>
                    </g>
                    <g>
                        <path></path>
                    </g>
                    <g>
                        <path></path>
                    </g>
                    <g>
                        <path></path>
                    </g>
                </g>
                <g style="display: none;">
                    <g>
                        <path></path>
                    </g>
                    <g>
                        <path></path>
                    </g>
                </g>
                <g style="display: none;">
                    <g>
                        <path></path>
                    </g>
                </g>
                <g style="display: none;">
                    <g>
                        <path></path>
                    </g>
                </g>
                <g mask="url(#__lottie_element_662_1)" style="display: none;">
                    <g>
                        <g>
                            <path></path>
                        </g>
                    </g>
                </g>
                <g style="display: none;">
                    <g>
                        <path></path>
                    </g>
                </g>
                <g style="display: none;">
                    <g>
                        <path stroke-linecap="round" stroke-linejoin="miter" fill-opacity="0" stroke-miterlimit="4">
                        </path>
                    </g>
                </g>
            </g>
            <g clip-path="url(#__lottie_element_627)" style="display: none;">
                <g style="display: none;">
                    <g>
                        <path></path>
                    </g>
                </g>
                <g style="display: none;">
                    <g>
                        <path></path>
                    </g>
                </g>
                <g style="display: none;">
                    <g>
                        <path></path>
                    </g>
                </g>
                <g style="display: none;">
                    <g>
                        <path stroke-linecap="round" stroke-linejoin="miter" fill-opacity="0" stroke-miterlimit="4">
                        </path>
                    </g>
                </g>
                <g style="display: none;">
                    <g>
                        <path></path>
                    </g>
                </g>
                <g style="display: none;">
                    <g>
                        <path></path>
                    </g>
                </g>
                <g style="display: none;">
                    <g>
                        <path stroke-linecap="round" stroke-linejoin="miter" fill-opacity="0" stroke-miterlimit="4">
                        </path>
                    </g>
                </g>
            </g>
            <g clip-path="url(#__lottie_element_614)" style="display: none;">
                <g style="display: none;">
                    <g>
                        <path></path>
                    </g>
                </g>
                <g style="display: none;">
                    <g>
                        <path></path>
                    </g>
                </g>
            </g>
            <g style="display: none;">
                <g>
                    <path></path>
                </g>
            </g>
        </g>
        <g clip-path="url(#__lottie_element_435)" transform="matrix(1,0,0,1,0,0)" opacity="1" style="display: block;">
            <g transform="matrix(1,0,0,1,324.8810119628906,331.49798583984375)" opacity="0.3" style="display: block;">
                <g opacity="1" transform="matrix(4,0,0,4,0,0)">
                    <path fill="rgb(175,175,175)" fill-opacity="1"
                        d=" M0,37.946998596191406 C26.916000366210938,37.946998596191406 48.736000061035156,20.957000732421875 48.736000061035156,0 C48.736000061035156,-20.957000732421875 26.916000366210938,-37.946998596191406 0,-37.946998596191406 C-26.916000366210938,-37.946998596191406 -48.736000061035156,-20.957000732421875 -48.736000061035156,0 C-48.736000061035156,20.957000732421875 -26.916000366210938,37.946998596191406 0,37.946998596191406z">
                    </path>
                </g>
            </g>
            <g transform="matrix(1,0,0,1,324.1260070800781,210.79202270507812)" opacity="1" style="display: block;">
                <g opacity="1" transform="matrix(4,0,0,4,0,0)">
                    <path fill="rgb(88,204,2)" fill-opacity="1"
                        d=" M0,-46.176998138427734 C-5.4029998779296875,-46.176998138427734 -9.465999603271484,-47.09600067138672 -13.343999862670898,-48.479000091552734 C-16.884000778198242,-49.74100112915039 -20.270999908447266,-50.948001861572266 -24.381000518798828,-50.948001861572266 C-38.1609992980957,-50.948001861572266 -42.577999114990234,-35.48899841308594 -42.4010009765625,-30.40999984741211 C-42.4010009765625,-30.40999984741211 -42.4010009765625,5.763999938964844 -42.4010009765625,5.763999938964844 C-42.4010009765625,41.0629997253418 -13.692000389099121,50.595001220703125 0,50.948001861572266 C13.692000389099121,50.595001220703125 42.4010009765625,41.0629997253418 42.4010009765625,5.763999938964844 C42.4010009765625,5.763999938964844 42.4010009765625,-30.40999984741211 42.4010009765625,-30.40999984741211 C42.577999114990234,-35.48899841308594 38.1609992980957,-50.948001861572266 24.381000518798828,-50.948001861572266 C20.270999908447266,-50.948001861572266 16.884000778198242,-49.74100112915039 13.343999862670898,-48.479000091552734 C9.465999603271484,-47.09600067138672 5.4029998779296875,-46.176998138427734 0,-46.176998138427734z">
                    </path>
                </g>
            </g>
            <g style="display: none;">
                <g>
                    <path></path>
                </g>
            </g>
            <g transform="matrix(-1,0,0,1,288.87200927734375,351.6180114746094)" opacity="1" style="display: block;">
                <g opacity="1"
                    transform="matrix(3.8082187175750732,1.2237117290496826,-1.2237117290496826,3.8082187175750732,-76,0)">
                    <path fill="rgb(142,224,0)" fill-opacity="1"
                        d=" M4.998000144958496,-2.73799991607666 C4.998000144958496,-2.73799991607666 -5.2769999504089355,-1.0479999780654907 -5.2769999504089355,-1.0479999780654907 C-5.828000068664551,-0.9570000171661377 -6.125,-0.4339999854564667 -5.864999771118164,-0.014000000432133675 C-4.61299991607666,2.003000020980835 -1.937000036239624,3.0989999771118164 0.777999997138977,2.6519999504089355 C3.493000030517578,2.2049999237060547 5.570000171661377,0.328000009059906 5.952000141143799,-1.9579999446868896 C6.0320000648498535,-2.434000015258789 5.548999786376953,-2.8289999961853027 4.998000144958496,-2.73799991607666z">
                    </path>
                </g>
                <g opacity="1"
                    transform="matrix(3.9136900901794434,-0.8264561891555786,0.8264561891555786,3.9136900901794434,-35.5,26.5)">
                    <path fill="rgb(137,226,25)" fill-opacity="1"
                        d=" M-4.710999965667725,-2.2699999809265137 C-0.8410000205039978,-1.4739999771118164 0.621999979019165,-1.1440000534057617 4.535999774932861,-0.3179999887943268 C7.960000038146973,0.4050000011920929 3.328000068664551,2.9830000400543213 -0.5860000252723694,2.1570000648498535 C-4.5,1.3309999704360962 -7.339000225067139,-2.811000108718872 -4.710999965667725,-2.2699999809265137z">
                    </path>
                </g>
                <g opacity="1"
                    transform="matrix(3.997220754623413,0.1490863859653473,-0.1490863859653473,3.997220754623413,0,0)">
                    <path fill="rgb(142,224,0)" fill-opacity="1"
                        d=" M4.998000144958496,-2.73799991607666 C4.998000144958496,-2.73799991607666 -5.2769999504089355,-1.0479999780654907 -5.2769999504089355,-1.0479999780654907 C-5.828000068664551,-0.9570000171661377 -6.125,-0.4339999854564667 -5.864999771118164,-0.014000000432133675 C-4.61299991607666,2.003000020980835 -1.937000036239624,3.0989999771118164 0.777999997138977,2.6519999504089355 C3.493000030517578,2.2049999237060547 5.570000171661377,0.328000009059906 5.952000141143799,-1.9579999446868896 C6.0320000648498535,-2.434000015258789 5.548999786376953,-2.8289999961853027 4.998000144958496,-2.73799991607666z">
                    </path>
                </g>
            </g>
            <g transform="matrix(0.13917310535907745,-0.9902680516242981,0.9902680516242981,0.13917310535907745,239.74801635742188,390.3892822265625)"
                opacity="1" style="display: block;">
                <g opacity="1"
                    transform="matrix(3.145714282989502,2.4707248210906982,-2.4707248210906982,3.145714282989502,0,0)">
                    <path fill="rgb(244,144,0)" fill-opacity="1"
                        d=" M0,-9.579999923706055 C-3.947999954223633,-9.579999923706055 -7.14900016784668,-6.379000186920166 -7.14900016784668,-2.430999994277954 C-7.14900016784668,-2.430999994277954 -7.14900016784668,2.430999994277954 -7.14900016784668,2.430999994277954 C-7.14900016784668,6.379000186920166 -3.947999954223633,9.579999923706055 0,9.579999923706055 C3.947999954223633,9.579999923706055 7.14900016784668,6.379000186920166 7.14900016784668,2.430999994277954 C7.14900016784668,2.430999994277954 7.14900016784668,-2.430999994277954 7.14900016784668,-2.430999994277954 C7.14900016784668,-6.379000186920166 3.947999954223633,-9.579999923706055 0,-9.579999923706055z">
                    </path>
                </g>
            </g>
            <g transform="matrix(0.00043633230961859226,-0.9999998807907104,-0.9999998807907104,-0.00043633230961859226,424.1015625,389.05096435546875)"
                opacity="1" style="display: block;">
                <g opacity="1"
                    transform="matrix(3.145714282989502,2.4707248210906982,-2.4707248210906982,3.145714282989502,0,0)">
                    <path fill="rgb(244,144,0)" fill-opacity="1"
                        d=" M0,-9.579999923706055 C-3.947999954223633,-9.579999923706055 -7.14900016784668,-6.379000186920166 -7.14900016784668,-2.430999994277954 C-7.14900016784668,-2.430999994277954 -7.14900016784668,2.430999994277954 -7.14900016784668,2.430999994277954 C-7.14900016784668,6.379000186920166 -3.947999954223633,9.579999923706055 0,9.579999923706055 C3.947999954223633,9.579999923706055 7.14900016784668,6.379000186920166 7.14900016784668,2.430999994277954 C7.14900016784668,2.430999994277954 7.14900016784668,-2.430999994277954 7.14900016784668,-2.430999994277954 C7.14900016784668,-6.379000186920166 3.947999954223633,-9.579999923706055 0,-9.579999923706055z">
                    </path>
                </g>
            </g>
            <g transform="matrix(1,0,0,1,322.5,242.00001525878906)" opacity="1" style="display: block;">
                <g opacity="1" transform="matrix(1,0,0,1,0,0)">
                    <path fill="rgb(88,204,2)" fill-opacity="1"
                        d=" M170.5,-27 C147.5,57 179.6179962158203,72.5 112,72.5 C17.5,72.5 32.5,139.5 80.5,150 C156.5,155 173.5,120 170.5,-27z">
                    </path>
                </g>
            </g>
            <g transform="matrix(1,0,0,1,327.5,241.00001525878906)" opacity="1" style="display: block;">
                <g opacity="1" transform="matrix(1,0,0,1,0,0)"></g>
                <g opacity="1" transform="matrix(1,0,0,1,0,0)">
                    <path stroke-linecap="round" stroke-linejoin="miter" fill-opacity="0" stroke-miterlimit="4"
                        stroke="rgb(88,167,0)" stroke-opacity="1" stroke-width="10"
                        d=" M153.54299926757812,63.92300033569336 C147.85000610351562,70.4749984741211 136.44000244140625,72.5 112,72.5 C26.84000015258789,72.5 30.604999542236328,126.91000366210938 67.30799865722656,145.35000610351562">
                    </path>
                </g>
            </g>
            <g clip-path="url(#__lottie_element_514)" transform="matrix(1,0,0,1,102.5,5.0000152587890625)" opacity="1"
                style="display: block;">
                <g transform="matrix(1,0,0,1,221.83200073242188,193.01300048828125)" opacity="1"
                    style="display: block;">
                    <g opacity="1" transform="matrix(4,0,0,4,0,0)">
                        <path fill="rgb(137,226,25)" fill-opacity="1"
                            d=" M9.371999740600586,-13.906000137329102 C4.0289998054504395,-8.973999977111816 -4.520999908447266,-8.973999977111816 -9.371000289916992,-13.906000137329102 C-12.57699966430664,-17.194000244140625 -12.248000144958496,-7.6579999923706055 -8.383999824523926,14.538000106811523 C-4.438000202178955,14.538000106811523 -1.6430000066757202,14.538000106811523 -0.08100000023841858,14.538000106811523 C5.672999858856201,14.456000328063965 8.550000190734863,14.538000106811523 8.550000190734863,14.538000106811523 C8.550000190734863,14.70199966430664 14.71500015258789,-18.83799934387207 9.371999740600586,-13.906000137329102z">
                        </path>
                    </g>
                </g>
                <g transform="matrix(1,0,0,1,316.572998046875,135.62100219726562)" opacity="1" style="display: block;">
                    <g opacity="1" transform="matrix(4,0,0,4,0,0)">
                        <path fill="rgb(137,226,25)" fill-opacity="1"
                            d=" M-8.312000274658203,5.785999774932861 C-8.312000274658203,5.785999774932861 4.758999824523926,-8.765000343322754 4.758999824523926,-8.765000343322754 C5.499000072479248,-9.505000114440918 6.73199987411499,-9.42199993133545 7.14300012588501,-8.435999870300293 C9.690999984741211,-4.078999996185303 9.116000175476074,1.4290000200271606 5.663000106811523,5.293000221252441 C2.2100000381469727,9.156999588012695 -3.2149999141693115,10.307000160217285 -7.818999767303467,8.251999855041504 C-8.722999572753906,7.758999824523926 -9.052000045776367,6.526000022888184 -8.312000274658203,5.785999774932861z">
                        </path>
                    </g>
                </g>
                <g transform="matrix(1,0,0,1,286.3210144042969,121.63099670410156)" opacity="1" style="display: block;">
                    <g opacity="1" transform="matrix(4,0,0,4,0,0)">
                        <path fill="rgb(137,226,25)" fill-opacity="1"
                            d=" M-8.312000274658203,5.748000144958496 C-8.312000274658203,5.748000144958496 4.758999824523926,-8.720000267028809 4.758999824523926,-8.720000267028809 C5.416999816894531,-9.460000038146973 6.650000095367432,-9.376999855041504 7.14300012588501,-8.472999572753906 C9.690999984741211,-4.116000175476074 9.116000175476074,1.3910000324249268 5.663000106811523,5.255000114440918 C2.2100000381469727,9.119000434875488 -3.2149999141693115,10.269000053405762 -7.818999767303467,8.21399974822998 C-8.722999572753906,7.7210001945495605 -9.052000045776367,6.48799991607666 -8.312000274658203,5.748000144958496z">
                        </path>
                    </g>
                </g>
                <g transform="matrix(1,0,0,1,158.30299377441406,121.63099670410156)" opacity="1"
                    style="display: block;">
                    <g opacity="1" transform="matrix(4,0,0,4,0,0)">
                        <path fill="rgb(137,226,25)" fill-opacity="1"
                            d=" M8.319999694824219,5.748000144958496 C8.319999694824219,5.748000144958496 -4.997000217437744,-8.720000267028809 -4.997000217437744,-8.720000267028809 C-5.736999988555908,-9.460000038146973 -6.642000198364258,-9.376999855041504 -7.2170000076293945,-8.472999572753906 C-9.682999610900879,-4.116000175476074 -9.107999801635742,1.3910000324249268 -5.65500020980835,5.255000114440918 C-2.2019999027252197,9.119000434875488 3.2230000495910645,10.269000053405762 7.827000141143799,8.21399974822998 C8.730999946594238,7.7210001945495605 9.0600004196167,6.48799991607666 8.319999694824219,5.748000144958496z">
                        </path>
                    </g>
                </g>
                <g transform="matrix(1,0,0,1,127.75599670410156,135.62100219726562)" opacity="1"
                    style="display: block;">
                    <g opacity="1" transform="matrix(4,0,0,4,0,0)">
                        <path fill="rgb(137,226,25)" fill-opacity="1"
                            d=" M8.312000274658203,5.785999774932861 C8.312000274658203,5.785999774932861 -4.677000045776367,-8.765000343322754 -4.677000045776367,-8.765000343322754 C-5.416999816894531,-9.505000114440918 -6.650000095367432,-9.42199993133545 -7.14300012588501,-8.435999870300293 C-9.690999984741211,-4.078999996185303 -9.116000175476074,1.4290000200271606 -5.663000106811523,5.293000221252441 C-2.2100000381469727,9.156999588012695 3.2149999141693115,10.307000160217285 7.818999767303467,8.251999855041504 C8.722999572753906,7.758999824523926 9.052000045776367,6.526000022888184 8.312000274658203,5.785999774932861z">
                        </path>
                    </g>
                </g>
                <g transform="matrix(1,0,0,1,309.4259948730469,207.14999389648438)" opacity="1" style="display: block;">
                    <g opacity="1" transform="matrix(4,0,0,4,0,0)">
                        <path fill="rgb(137,226,25)" fill-opacity="1"
                            d=" M-1.434000015258789,-22.041000366210938 C9.473999977111816,-22.94499969482422 18.485000610351562,-13.649999618530273 17.242000579833984,-2.7750000953674316 C17.242000579833984,-2.7750000953674316 16.097999572753906,7.22599983215332 16.097999572753906,7.22599983215332 C15.175000190734863,15.295999526977539 8.604999542236328,21.547000885009766 0.49900001287460327,22.066999435424805 C-9.17199993133545,22.687000274658203 -17.356000900268555,15.01099967956543 -17.356000900268555,5.320000171661377 C-17.356000900268555,5.320000171661377 -17.356000900268555,-4.745999813079834 -17.356000900268555,-4.745999813079834 C-17.356000900268555,-13.774999618530273 -10.432999610900879,-21.29599952697754 -1.434000015258789,-22.041000366210938z">
                        </path>
                    </g>
                </g>
                <g transform="matrix(1,0,0,1,134.57400512695312,207.14999389648438)" opacity="1"
                    style="display: block;">
                    <g opacity="1" transform="matrix(4,0,0,4,0,0)">
                        <path fill="rgb(137,226,25)" fill-opacity="1"
                            d=" M1.434000015258789,-22.041000366210938 C-9.473999977111816,-22.94499969482422 -18.485000610351562,-13.649999618530273 -17.242000579833984,-2.7750000953674316 C-17.242000579833984,-2.7750000953674316 -16.097999572753906,7.22599983215332 -16.097999572753906,7.22599983215332 C-15.175000190734863,15.295999526977539 -8.604999542236328,21.547000885009766 -0.49900001287460327,22.066999435424805 C9.17199993133545,22.687000274658203 17.356000900268555,15.01099967956543 17.356000900268555,5.320000171661377 C17.356000900268555,5.320000171661377 17.356000900268555,-4.745999813079834 17.356000900268555,-4.745999813079834 C17.356000900268555,-13.774999618530273 10.432999610900879,-21.29599952697754 1.434000015258789,-22.041000366210938z">
                        </path>
                    </g>
                </g>
                <g transform="matrix(1,0,0,1,136.63499450683594,207.98899841308594)" opacity="1"
                    style="display: block;">
                    <g opacity="1" transform="matrix(4,0,0,4,0,0)">
                        <path fill="rgb(255,255,255)" fill-opacity="1"
                            d=" M1.871000051498413,-15.593000411987305 C-5.752999782562256,-16.812999725341797 -12.484999656677246,-10.527000427246094 -11.791999816894531,-2.8380000591278076 C-11.791999816894531,-2.8380000591278076 -11.059000015258789,5.297999858856201 -11.059000015258789,5.297999858856201 C-10.595000267028809,10.4399995803833 -6.754000186920166,14.638999938964844 -1.6740000247955322,15.557999610900879 C5.366000175476074,16.83099937438965 11.840999603271484,11.42199993133545 11.840999603271484,4.26800012588501 C11.840999603271484,4.26800012588501 11.840999603271484,-3.9010000228881836 11.840999603271484,-3.9010000228881836 C11.840999603271484,-9.718000411987305 7.614999771118164,-14.673999786376953 1.871000051498413,-15.593000411987305z">
                        </path>
                    </g>
                </g>
                <g transform="matrix(1,0,0,1,147.43899536132812,203)" opacity="1" style="display: block;">
                    <g opacity="1" transform="matrix(4,0,0,4,0,0)">
                        <path fill="rgb(75,75,75)" fill-opacity="1"
                            d=" M0,-9 C-3.6600000858306885,-9 -6.50600004196167,-5.818999767303467 -6.1020002365112305,-2.181999921798706 C-6.1020002365112305,-2.181999921798706 -5.433000087738037,3.8359999656677246 -5.433000087738037,3.8359999656677246 C-5.105999946594238,6.776000022888184 -2.621999979019165,9 0.335999995470047,9 C3.5420000553131104,9 6.139999866485596,6.401000022888184 6.139999866485596,3.194999933242798 C6.139999866485596,3.194999933242798 6.139999866485596,-2.859999895095825 6.139999866485596,-2.859999895095825 C6.139999866485596,-6.250999927520752 3.3910000324249268,-9 0,-9z">
                        </path>
                    </g>
                </g>
                <g transform="matrix(1,0,0,1,124.79700469970703,181.7969970703125)" opacity="1" style="display: block;">
                    <g opacity="1" transform="matrix(4,0,0,4,0,0)">
                        <path fill="rgb(255,255,255)" fill-opacity="1"
                            d=" M0,3.6989998817443848 C2.0429999828338623,3.6989998817443848 3.6989998817443848,2.0429999828338623 3.6989998817443848,0 C3.6989998817443848,-2.0429999828338623 2.0429999828338623,-3.6989998817443848 0,-3.6989998817443848 C-2.0429999828338623,-3.6989998817443848 -3.6989998817443848,-2.0429999828338623 -3.6989998817443848,0 C-3.6989998817443848,2.0429999828338623 -2.0429999828338623,3.6989998817443848 0,3.6989998817443848z">
                        </path>
                    </g>
                </g>
                <g transform="matrix(1,0,0,1,307.364990234375,207.98899841308594)" opacity="1" style="display: block;">
                    <g opacity="1" transform="matrix(4,0,0,4,0,0)">
                        <path fill="rgb(255,255,255)" fill-opacity="1"
                            d=" M-1.871000051498413,-15.593000411987305 C5.752999782562256,-16.812999725341797 12.484999656677246,-10.527000427246094 11.791999816894531,-2.8380000591278076 C11.791999816894531,-2.8380000591278076 11.059000015258789,5.297999858856201 11.059000015258789,5.297999858856201 C10.595000267028809,10.4399995803833 6.754000186920166,14.638999938964844 1.6740000247955322,15.557999610900879 C-5.366000175476074,16.83099937438965 -11.840999603271484,11.42199993133545 -11.840999603271484,4.26800012588501 C-11.840999603271484,4.26800012588501 -11.840999603271484,-3.9010000228881836 -11.840999603271484,-3.9010000228881836 C-11.840999603271484,-9.718000411987305 -7.614999771118164,-14.673999786376953 -1.871000051498413,-15.593000411987305z">
                        </path>
                    </g>
                </g>
                <g transform="matrix(1,0,0,1,296.5610046386719,203)" opacity="1" style="display: block;">
                    <g opacity="1" transform="matrix(4,0,0,4,0,0)">
                        <path fill="rgb(75,75,75)" fill-opacity="1"
                            d=" M0,-9 C-3.3910000324249268,-9 -6.139999866485596,-6.250999927520752 -6.139999866485596,-2.859999895095825 C-6.139999866485596,-2.859999895095825 -6.139999866485596,3.194999933242798 -6.139999866485596,3.194999933242798 C-6.139999866485596,6.401000022888184 -3.5420000553131104,9 -0.335999995470047,9 C2.621999979019165,9 5.105999946594238,6.776000022888184 5.433000087738037,3.8359999656677246 C5.433000087738037,3.8359999656677246 6.1020002365112305,-2.181999921798706 6.1020002365112305,-2.181999921798706 C6.50600004196167,-5.818999767303467 3.6600000858306885,-9 0,-9z">
                        </path>
                    </g>
                </g>
                <g transform="matrix(1,0,0,1,274.7969970703125,181.7969970703125)" opacity="1" style="display: block;">
                    <g opacity="1" transform="matrix(4,0,0,4,0,0)">
                        <path fill="rgb(255,255,255)" fill-opacity="1"
                            d=" M0,3.6989998817443848 C2.0429999828338623,3.6989998817443848 3.6989998817443848,2.0429999828338623 3.6989998817443848,0 C3.6989998817443848,-2.0429999828338623 2.0429999828338623,-3.6989998817443848 0,-3.6989998817443848 C-2.0429999828338623,-3.6989998817443848 -1.6369999647140503,-2.3239998817443848 -2.26200008392334,0 C-2.565999984741211,1.128999948501587 -3.1559998989105225,2.2119998931884766 -2.309000015258789,2.890000104904175 C-1.6759999990463257,3.3959999084472656 -0.8730000257492065,3.6989998817443848 0,3.6989998817443848z">
                        </path>
                    </g>
                </g>
                <g style="display: none;">
                    <g>
                        <path></path>
                    </g>
                    <g>
                        <path></path>
                    </g>
                </g>
                <g style="display: none;">
                    <g>
                        <path></path>
                    </g>
                    <g>
                        <path></path>
                    </g>
                    <g>
                        <path></path>
                    </g>
                    <g>
                        <path></path>
                    </g>
                </g>
                <g style="display: none;">
                    <g>
                        <path></path>
                    </g>
                    <g>
                        <path></path>
                    </g>
                    <g>
                        <path></path>
                    </g>
                    <g>
                        <path></path>
                    </g>
                </g>
                <g transform="matrix(1,0,0,1,222.49200439453125,251.8209991455078)" opacity="1" style="display: block;">
                    <g opacity="1" transform="matrix(4,0,0,4,0.000999998301267624,0.00099945068359375)">
                        <path fill="rgb(244,144,0)" fill-opacity="1"
                            d=" M6.164999961853027,-0.9860000014305115 C6.164999961853027,-4.355999946594238 3.369999885559082,-7.1519999504089355 0,-7.1519999504089355 C-3.369999885559082,-7.1519999504089355 -6.164999961853027,-4.355999946594238 -6.164999961853027,-0.9860000014305115 C-6.164999961853027,-0.9860000014305115 -6.164999961853027,0.9860000014305115 -6.164999961853027,0.9860000014305115 C-6.164999961853027,4.355999946594238 -3.369999885559082,7.1519999504089355 0,7.1519999504089355 C3.369999885559082,7.1519999504089355 6.164999961853027,4.355999946594238 6.164999961853027,0.9860000014305115 C6.164999961853027,0.9860000014305115 6.164999961853027,-0.9860000014305115 6.164999961853027,-0.9860000014305115z">
                        </path>
                    </g>
                    <g opacity="1" transform="matrix(4,0,0,4,-0.0010000020265579224,-0.0010013580322265625)">
                        <path fill="rgb(176,104,0)" fill-opacity="1"
                            d=" M4.501999855041504,-2.9549999237060547 C4.501999855041504,-4.938000202178955 2.4609999656677246,-6.581999778747559 0,-6.581999778747559 C-2.4609999656677246,-6.581999778747559 -4.501999855041504,-4.938000202178955 -4.501999855041504,-2.9549999237060547 C-4.501999855041504,-2.9549999237060547 -4.501999855041504,-1.7949999570846558 -4.501999855041504,-1.7949999570846558 C-4.501999855041504,0.18799999356269836 -2.4609999656677246,1.8320000171661377 0,1.8320000171661377 C2.4609999656677246,1.8320000171661377 4.501999855041504,0.18799999356269836 4.501999855041504,-1.7949999570846558 C4.501999855041504,-1.7949999570846558 4.501999855041504,-2.9549999237060547 4.501999855041504,-2.9549999237060547z">
                        </path>
                    </g>
                </g>
                <g transform="matrix(1.0399999618530273,0,0,0.4300000071525574,219.90728759765625,238.09469604492188)"
                    opacity="1" style="display: block;">
                    <g opacity="1" transform="matrix(1.010740041732788,0,0,1,2.4955787658691406,21.654998779296875)">
                        <path fill="rgb(244,144,0)" fill-opacity="1"
                            d=" M24.102500915527344,-7.368999481201172 C24.102500915527344,-7.368999481201172 24.102500915527344,7.368999481201172 24.102500915527344,7.368999481201172 C24.102500915527344,20.67116928100586 13.302169799804688,31.471500396728516 0,31.471500396728516 C0,31.471500396728516 0,31.471500396728516 0,31.471500396728516 C-13.302169799804688,31.471500396728516 -24.102500915527344,20.67116928100586 -24.102500915527344,7.368999481201172 C-24.102500915527344,7.368999481201172 -24.102500915527344,-7.368999481201172 -24.102500915527344,-7.368999481201172 C-24.102500915527344,-20.67116928100586 -13.302169799804688,-31.471500396728516 0,-31.471500396728516 C0,-31.471500396728516 0,-31.471500396728516 0,-31.471500396728516 C13.302169799804688,-31.471500396728516 24.102500915527344,-20.67116928100586 24.102500915527344,-7.368999481201172z">
                        </path>
                    </g>
                </g>
                <g transform="matrix(0.7499959468841553,0,0,0.3834611177444458,221.1653594970703,238.73931884765625)"
                    opacity="1" style="display: block;">
                    <g opacity="1" transform="matrix(1,0,0,1,2.315000057220459,14.253000259399414)">
                        <path fill="rgb(169,102,6)" fill-opacity="1"
                            d=" M25.065500259399414,-5.496500015258789 C25.065500259399414,-5.496500015258789 25.065500259399414,5.496500015258789 25.065500259399414,5.496500015258789 C25.065500259399414,18.190200805664062 14.759200096130371,28.49650001525879 2.065500259399414,28.49650001525879 C2.065500259399414,28.49650001525879 -2.065500259399414,28.49650001525879 -2.065500259399414,28.49650001525879 C-14.759200096130371,28.49650001525879 -25.065500259399414,18.190200805664062 -25.065500259399414,5.496500015258789 C-25.065500259399414,5.496500015258789 -25.065500259399414,-5.496500015258789 -25.065500259399414,-5.496500015258789 C-25.065500259399414,-18.190200805664062 -14.759200096130371,-28.49650001525879 -2.065500259399414,-28.49650001525879 C-2.065500259399414,-28.49650001525879 2.065500259399414,-28.49650001525879 2.065500259399414,-28.49650001525879 C14.759200096130371,-28.49650001525879 25.065500259399414,-18.190200805664062 25.065500259399414,-5.496500015258789z">
                        </path>
                    </g>
                </g>
                <g mask="url(#__lottie_element_523_1)" style="display: block;">
                    <g transform="matrix(0.9999921321868896,0,0,0.36752447485923767,220.49887084960938,236.7672576904297)"
                        opacity="1">
                        <g opacity="1" transform="matrix(1,0,0,1,1.6150000095367432,52.69900131225586)">
                            <path fill="rgb(255,202,255)" fill-opacity="1"
                                d=" M0,-19.605499267578125 C10.82027530670166,-19.605499267578125 19.605499267578125,-10.82027530670166 19.605499267578125,0 C19.605499267578125,10.82027530670166 10.82027530670166,19.605499267578125 0,19.605499267578125 C-10.82027530670166,19.605499267578125 -19.605499267578125,10.82027530670166 -19.605499267578125,0 C-19.605499267578125,-10.82027530670166 -10.82027530670166,-19.605499267578125 0,-19.605499267578125z">
                            </path>
                        </g>
                    </g>
                </g>
                <g transform="matrix(1,0,0,1,222.16400146484375,242.4770050048828)" opacity="1" style="display: block;">
                    <g opacity="1" transform="matrix(4,0,0,4,0,0)">
                        <path fill="rgb(255,194,0)" fill-opacity="1"
                            d=" M0.164000004529953,-4.815999984741211 C-4.111000061035156,-4.815999984741211 -7.7270002365112305,-2.0199999809265137 -8.467000007629395,1.7610000371932983 C-8.467000007629395,1.7610000371932983 -8.467000007629395,2.0889999866485596 -8.467000007629395,2.0889999866485596 C-8.467000007629395,2.3359999656677246 -8.385000228881836,2.4179999828338623 -8.137999534606934,2.4179999828338623 C-8.137999534606934,2.4179999828338623 0.27300000190734863,4.827000141143799 0.27300000190734863,4.827000141143799 C0.43700000643730164,4.827000141143799 8.137999534606934,2.4179999828338623 8.137999534606934,2.4179999828338623 C8.385000228881836,2.5 8.467000007629395,2.3359999656677246 8.467000007629395,2.0889999866485596 C8.467000007629395,2.0889999866485596 8.467000007629395,1.7610000371932983 8.467000007629395,1.7610000371932983 C7.7270002365112305,-1.937999963760376 4.191999912261963,-4.815999984741211 0.164000004529953,-4.815999984741211z">
                        </path>
                    </g>
                </g>
                <g transform="matrix(0.9995499849319458,0.029997708275914192,-0.029997708275914192,0.9995499849319458,236.65573120117188,198.16673278808594)"
                    opacity="1" style="display: block;">
                    <g opacity="1" transform="matrix(1,0,0,1,-1.75600004196167,0.1720000058412552)">
                        <path stroke-linecap="round" stroke-linejoin="miter" fill-opacity="0" stroke-miterlimit="4"
                            stroke="rgb(255,222,0)" stroke-opacity="1" stroke-width="15.445"
                            d=" M-18.80699920654297,38.847999572753906 C-16.28499984741211,37.30799865722656 -9.6899995803833,35.83599853515625 -3.8329999446868896,38.72600173950195">
                        </path>
                    </g>
                </g>
            </g>
            <g clip-path="url(#__lottie_element_488)"
                transform="matrix(-0.35197240114212036,-0.5225088000297546,0.5225088000297546,-0.35197240114212036,375.525634765625,432.44171142578125)"
                opacity="1" style="display: block;">
                <g transform="matrix(1,0,0,1,105.43599700927734,220.83299255371094)" opacity="1"
                    style="display: block;">
                    <g opacity="1" transform="matrix(4,0,0,4,0,0)">
                        <path fill="rgb(255,190,229)" fill-opacity="1"
                            d=" M-7.109000205993652,-12.343000411987305 C-9.317999839782715,-12.343000411987305 -11.109000205993652,-10.552000045776367 -11.109000205993652,-8.343000411987305 C-11.109000205993652,-8.343000411987305 -11.109000205993652,8.343000411987305 -11.109000205993652,8.343000411987305 C-11.109000205993652,10.552000045776367 -9.317999839782715,12.343000411987305 -7.109000205993652,12.343000411987305 C-7.109000205993652,12.343000411987305 7.109000205993652,12.343000411987305 7.109000205993652,12.343000411987305 C9.317999839782715,12.343000411987305 11.109000205993652,10.552000045776367 11.109000205993652,8.343000411987305 C11.109000205993652,8.343000411987305 11.109000205993652,-8.343000411987305 11.109000205993652,-8.343000411987305 C11.109000205993652,-10.552000045776367 9.317999839782715,-12.343000411987305 7.109000205993652,-12.343000411987305 C7.109000205993652,-12.343000411987305 -7.109000205993652,-12.343000411987305 -7.109000205993652,-12.343000411987305z">
                        </path>
                    </g>
                </g>
                <g transform="matrix(1,0,0,1,105.43599700927734,128.08799743652344)" opacity="1"
                    style="display: block;">
                    <g opacity="1" transform="matrix(4,0,0,4,0,0)">
                        <path fill="rgb(255,237,191)" fill-opacity="1"
                            d=" M-10.27299976348877,-14.876999855041504 C-10.810999870300293,-14.27400016784668 -11.109000205993652,-13.494000434875488 -11.109000205993652,-12.6850004196167 C-11.109000205993652,-12.6850004196167 -11.109000205993652,25.14699935913086 -11.109000205993652,25.14699935913086 C-11.109000205993652,25.14699935913086 11.109000205993652,25.14699935913086 11.109000205993652,25.14699935913086 C11.109000205993652,25.14699935913086 11.109000205993652,-12.6850004196167 11.109000205993652,-12.6850004196167 C11.109000205993652,-13.494000434875488 10.810999870300293,-14.27400016784668 10.27299976348877,-14.876999855041504 C10.27299976348877,-14.876999855041504 1.8420000076293945,-24.32200050354004 1.8420000076293945,-24.32200050354004 C0.8600000143051147,-25.422000885009766 -0.8600000143051147,-25.422000885009766 -1.8420000076293945,-24.32200050354004 C-1.8420000076293945,-24.32200050354004 -10.27299976348877,-14.876999855041504 -10.27299976348877,-14.876999855041504z">
                        </path>
                    </g>
                </g>
                <g transform="matrix(1,0,0,1,105.43599700927734,148.15899658203125)" opacity="1"
                    style="display: block;">
                    <g opacity="1" transform="matrix(4,0,0,4,0,0)">
                        <path fill="rgb(255,222,50)" fill-opacity="1"
                            d=" M-11.109000205993652,-17.702999114990234 C-11.109000205993652,-17.893999099731445 -11.092000007629395,-18.082000732421875 -11.0600004196167,-18.26799964904785 C-11.0600004196167,-18.26799964904785 -7.343999862670898,-15.822999954223633 -7.343999862670898,-15.822999954223633 C-6.828000068664551,-15.482999801635742 -6.164000034332275,-15.461999893188477 -5.626999855041504,-15.767000198364258 C-5.626999855041504,-15.767000198364258 -0.8119999766349792,-18.49799919128418 -0.8119999766349792,-18.49799919128418 C-0.30799999833106995,-18.784000396728516 0.30799999833106995,-18.784000396728516 0.8119999766349792,-18.49799919128418 C0.8119999766349792,-18.49799919128418 5.626999855041504,-15.767000198364258 5.626999855041504,-15.767000198364258 C6.164000034332275,-15.461999893188477 6.828000068664551,-15.482999801635742 7.343999862670898,-15.822999954223633 C7.343999862670898,-15.822999954223633 11.0600004196167,-18.26799964904785 11.0600004196167,-18.26799964904785 C11.092000007629395,-18.082000732421875 11.109000205993652,-17.893999099731445 11.109000205993652,-17.702999114990234 C11.109000205993652,-17.702999114990234 11.109000205993652,18.711999893188477 11.109000205993652,18.711999893188477 C11.109000205993652,18.711999893188477 -11.109000205993652,18.711999893188477 -11.109000205993652,18.711999893188477 C-11.109000205993652,18.711999893188477 -11.109000205993652,-17.702999114990234 -11.109000205993652,-17.702999114990234z">
                        </path>
                    </g>
                </g>
                <g transform="matrix(1,0,0,1,86.51000213623047,148.06100463867188)" opacity="1" style="display: block;">
                    <g opacity="1" transform="matrix(4,0,0,4,0,0)">
                        <path stroke-linecap="round" stroke-linejoin="miter" fill-opacity="0" stroke-miterlimit="4"
                            stroke="rgb(255,192,0)" stroke-opacity="1" stroke-width="2.469"
                            d=" M0,9.265000343322754 C0,9.265000343322754 0,-9.265000343322754 0,-9.265000343322754">
                        </path>
                    </g>
                </g>
                <g transform="matrix(1,0,0,1,105.38200378417969,37.007999420166016)" opacity="1"
                    style="display: block;">
                    <g opacity="1" transform="matrix(4,0,0,4,0,0)">
                        <path fill="rgb(96,96,96)" fill-opacity="1"
                            d=" M-0.023000000044703484,2.377000093460083 C1.5470000505447388,2.377000093460083 3.006999969482422,1.9079999923706055 4.22599983215332,1.1030000448226929 C4.22599983215332,1.1030000448226929 1.8550000190734863,-1.5520000457763672 1.8550000190734863,-1.5520000457763672 C0.8730000257492065,-2.6519999504089355 -0.8460000157356262,-2.6519999504089355 -1.8279999494552612,-1.5520000457763672 C-1.8279999494552612,-1.5520000457763672 -4.22599983215332,1.1339999437332153 -4.22599983215332,1.1339999437332153 C-3.0169999599456787,1.9199999570846558 -1.5729999542236328,2.377000093460083 -0.023000000044703484,2.377000093460083z">
                        </path>
                    </g>
                </g>
                <g transform="matrix(1,0,0,1,105.43599700927734,221.16200256347656)" opacity="1"
                    style="display: block;">
                    <g opacity="1" transform="matrix(4,0,0,4,0,0)">
                        <path fill="rgb(196,196,196)" fill-opacity="1"
                            d=" M11.109000205993652,-2.5199999809265137 C11.109000205993652,-2.5199999809265137 -11.109000205993652,-2.5199999809265137 -11.109000205993652,-2.5199999809265137 C-11.109000205993652,-2.5199999809265137 -11.109000205993652,2.5199999809265137 -11.109000205993652,2.5199999809265137 C-11.109000205993652,2.5199999809265137 11.109000205993652,2.5199999809265137 11.109000205993652,2.5199999809265137 C11.109000205993652,2.5199999809265137 11.109000205993652,-2.5199999809265137 11.109000205993652,-2.5199999809265137z">
                        </path>
                    </g>
                </g>
                <g transform="matrix(1,0,0,1,124.36199951171875,148.06100463867188)" opacity="1"
                    style="display: block;">
                    <g opacity="1" transform="matrix(4,0,0,4,0,0)">
                        <path stroke-linecap="round" stroke-linejoin="miter" fill-opacity="0" stroke-miterlimit="4"
                            stroke="rgb(255,192,0)" stroke-opacity="1" stroke-width="2.469"
                            d=" M0,9.265000343322754 C0,9.265000343322754 0,-9.265000343322754 0,-9.265000343322754">
                        </path>
                    </g>
                </g>
            </g>
            <g clip-path="url(#__lottie_element_460)" style="display: none;">
                <g style="display: none;">
                    <g>
                        <path></path>
                    </g>
                </g>
                <g style="display: none;">
                    <g>
                        <path></path>
                    </g>
                </g>
                <g style="display: none;">
                    <g>
                        <path></path>
                    </g>
                </g>
                <g style="display: none;">
                    <g>
                        <path stroke-linecap="round" stroke-linejoin="miter" fill-opacity="0" stroke-miterlimit="4">
                        </path>
                    </g>
                </g>
                <g style="display: none;">
                    <g>
                        <path></path>
                    </g>
                </g>
                <g style="display: none;">
                    <g>
                        <path></path>
                    </g>
                </g>
                <g style="display: none;">
                    <g>
                        <path stroke-linecap="round" stroke-linejoin="miter" fill-opacity="0" stroke-miterlimit="4">
                        </path>
                    </g>
                </g>
            </g>
            <g style="display: none;">
                <g>
                    <path stroke-linecap="butt" stroke-linejoin="miter" fill-opacity="0" stroke-miterlimit="4"></path>
                </g>
                <g>
                    <path stroke-linecap="butt" stroke-linejoin="miter" fill-opacity="0" stroke-miterlimit="4"></path>
                </g>
            </g>
            <g clip-path="url(#__lottie_element_443)"
                transform="matrix(0.4999561309814453,0.006623330991715193,-0.006623330991715193,0.4999561309814453,84.56704711914062,199.920654296875)"
                opacity="1" style="display: block;">
                <g transform="matrix(1,0,0,1,316,310)" opacity="1" style="display: block;">
                    <g opacity="1" transform="matrix(1,0,0,1,0,0)">
                        <path fill="rgb(217,217,217)" fill-opacity="1"
                            d=" M-11.5,-148 C-50,-152.5 -50.5,-118.5 -50.5,-118.5 C-50.5,-118.5 42.5,-73 42.5,-101 C42.5,-129 27,-143.5 -11.5,-148z">
                        </path>
                    </g>
                </g>
                <g transform="matrix(1,0,0,1,316,330)" opacity="1" style="display: block;">
                    <g opacity="1" transform="matrix(1,0,0,1,0,-20)">
                        <path fill="rgb(205,121,0)" fill-opacity="1"
                            d=" M-103,-128 C-103,-128 -122.5,-133.5 -123.75,-119.5 C-124.7490005493164,-108.31700134277344 -105.5,25 -100.5,67 C-95.5,109 -96.5,123 -86.5,129.5 C-76.5,136 -1,146.5 -1,146.5 C-1,146.5 116,169 116,169 C116,169 136.5,174 135,157 C133.5,140 118.5,-75 118.5,-75 C118.5,-75 121.5,-91.5 96.5,-96 C71.5,-100.5 -103,-128 -103,-128z">
                        </path>
                    </g>
                </g>
            </g>
            <g transform="matrix(1,0,0,1,332.5,243.00001525878906)" opacity="1" style="display: block;">
                <g opacity="1" transform="matrix(1,0,0,1,0,0)">
                    <path fill="rgb(88,204,2)" fill-opacity="1"
                        d=" M-177,-6.5 C-233.5,145 -142.35299682617188,160.3350067138672 -119.39099884033203,153.0260009765625 C-100.5,147.01300048828125 -95.11499786376953,131.1999969482422 -93.5,121.51300048828125 C-91,106.51300048828125 -121,93.51300048828125 -147.5,74.01300048828125 C-170.73899841308594,56.9119987487793 -177,1.5 -177,-6.5z">
                    </path>
                </g>
            </g>
        </g>
    </g>
</svg>